<?xml version="1.0" encoding="iso-8859-1"?>
<!-- Generator: Adobe Illustrator 19.0.0, SVG Export Plug-In . SVG Version: 6.00 Build 0)  -->
<svg version="1.1" id="Capa_1" xmlns="http://www.w3.org/2000/svg" xmlns:xlink="http://www.w3.org/1999/xlink" x="0px" y="0px"
	 viewBox="0 0 512.002 512.002" style="enable-background:new 0 0 512.002 512.002;" xml:space="preserve">
<circle style="fill:#FFD4B0;" cx="138.343" cy="326.356" r="35.282"/>
<path style="fill:#FFDC13;" d="M305.931,35.282v52.923c0,19.484,15.797,35.282,35.282,35.282h26.461l26.461,26.461l26.461-26.461
	h26.461c19.484,0,35.282-15.797,35.282-35.282V35.282C482.34,15.797,466.543,0,447.058,0H341.213
	C321.729,0,305.931,15.797,305.931,35.282z"/>
<path style="fill:#4DB5FF;" d="M226.547,167.588c0-38.969-39.489-70.564-88.204-70.564s-88.204,31.595-88.204,70.564
	c0,33.033,28.402,60.676,66.709,68.367l21.495,28.658l21.495-28.658C198.146,228.264,226.547,200.621,226.547,167.588z"/>
<g>
	<rect x="129.523" y="194.05" style="fill:#235087;" width="17.641" height="17.641"/>
	<path style="fill:#235087;" d="M328.944,481.12c-2.717,14.077,6.492,27.687,20.569,30.404c14.077,2.717,27.687-6.492,30.404-20.569
		c0.071-0.353,0.132-0.706,0.185-1.067l14.033-84.147l14.025,84.156c2.126,14.174,15.348,23.947,29.531,21.813
		c14.183-2.135,23.947-15.348,21.813-29.531c-0.053-0.353-0.115-0.714-0.185-1.067l-21.081-119.473h-88.204L328.944,481.12z"/>
</g>
<polygon style="fill:#FFA511;" points="58.959,388.099 58.959,423.381 94.241,423.381 94.241,511.585 182.445,511.585 
	182.445,423.381 217.727,423.381 217.727,388.099 "/>
<path style="fill:#FFD4B0;" d="M269.891,392.06l-43.15-61.646c-5.01-7.33-15.021-9.217-22.351-4.207
	c-7.33,5.01-9.217,15.021-4.207,22.351l26.364,39.542h-8.82v35.282h35.855c10.999,0,19.908-8.917,19.908-19.908
	C273.49,399.389,272.237,395.403,269.891,392.06z"/>
<polygon style="fill:#EF2648;" points="323.572,273.434 323.572,308.715 350.034,308.715 350.034,361.638 438.238,361.638 
	438.238,308.715 464.699,308.715 464.699,273.434 "/>
<path style="fill:#FFD4B0;" d="M494.124,238.39c-9.605-1.641-18.717,4.825-20.358,14.43c-0.168,0.979-0.256,1.976-0.247,2.972v8.82
	c0,4.869-3.952,8.82-8.82,8.82v35.282c24.353,0,44.102-19.749,44.102-44.102v-7.877C509.004,247.872,502.821,240.145,494.124,238.39
	z"/>
<path style="fill:#235087;" d="M147.163,185.229h-17.641c0-14.615,11.846-26.461,26.461-26.461c4.869,0,8.82-3.952,8.82-8.82
	s-3.952-8.82-8.82-8.82h-26.461c-4.869,0-8.82,3.952-8.82,8.82h-17.641c0-14.615,11.846-26.461,26.461-26.461h26.461
	c14.615,0,26.461,11.846,26.461,26.461s-11.846,26.461-26.461,26.461C151.115,176.409,147.163,180.36,147.163,185.229z"/>
<path style="fill:#2DB357;" d="M376.495,97.025c-2.337,0-4.587-0.926-6.236-2.584L352.618,76.8
	c-3.387-3.502-3.29-9.085,0.221-12.472c3.422-3.299,8.838-3.299,12.252,0l11.405,11.405l46.687-46.687
	c3.387-3.502,8.97-3.599,12.472-0.221c3.502,3.387,3.599,8.97,0.221,12.472c-0.071,0.071-0.141,0.141-0.221,0.221L382.731,94.44
	C381.081,96.099,378.841,97.025,376.495,97.025z"/>
<g>
	<path style="fill:#FFD4B0;" d="M50.139,388.099l26.364-39.542c5.01-7.33,3.122-17.341-4.207-22.351
		c-7.33-5.01-17.341-3.122-22.351,4.207l0,0L6.795,392.06c-6.307,9.006-4.11,21.425,4.895,27.723
		c3.352,2.346,7.339,3.599,11.414,3.599h35.855v-35.282H50.139z"/>
	<path style="fill:#FFD4B0;" d="M314.752,264.613v-43.158c0.194-8.865-5.989-16.591-14.677-18.346
		c-9.605-1.641-18.717,4.825-20.358,14.43c-0.168,0.979-0.256,1.976-0.247,2.972v44.102c0,24.353,19.749,44.102,44.102,44.102
		v-35.282C318.703,273.434,314.752,269.482,314.752,264.613z"/>
</g>
<path style="fill:#163768;" d="M328.944,481.12c-2.717,14.077,6.492,27.687,20.569,30.404c14.077,2.717,27.687-6.492,30.404-20.569
	c0.071-0.353,0.132-0.706,0.185-1.067l14.033-84.147l14.025,84.156c2.126,14.174,15.348,23.947,29.531,21.813
	c14.183-2.135,23.947-15.348,21.813-29.531c-0.053-0.353-0.115-0.714-0.185-1.067l-21.081-119.473h-88.204L328.944,481.12z"/>
<path style="fill:#F08015;" d="M94.241,435.73v75.856h88.204v-88.204h35.282v-12.516C177.329,422.57,136.023,430.887,94.241,435.73z
	"/>
<path style="fill:#EDC4A2;" d="M217.727,423.381h35.855c10.955,0.018,19.855-8.847,19.872-19.802
	c0.009-3.555-0.944-7.039-2.752-10.108c-17.35,6.465-35.052,12.19-52.976,17.394V423.381z"/>
<path style="fill:#B20D24;" d="M350.034,358.471v3.167h88.204v-52.923h26.461V286.55
	C428.703,313.893,390.325,337.964,350.034,358.471z"/>
<path style="fill:#EDC4A2;" d="M464.699,308.715c24.353,0,44.102-19.749,44.102-44.102v-7.877c-0.009-1.932-0.309-3.855-0.882-5.698
	c-13.963,12.349-28.375,24.186-43.22,35.511V308.715z"/>
<path style="fill:#3596D8;" d="M205.934,122.287c-14.421,28.658-35.687,53.311-61.928,71.763h3.158v17.641h-17.641v-8.388
	c-14.518,8.415-30.069,14.898-46.263,19.273c10.276,6.501,21.663,11.034,33.588,13.381l21.495,28.658l21.495-28.658
	c38.307-7.691,66.709-35.335,66.709-68.367C226.239,150.283,218.777,133.885,205.934,122.287z"/>
<path style="fill:#163768;" d="M129.523,211.691h17.641V194.05h-3.158c-4.701,3.29-9.535,6.368-14.483,9.253V211.691z"/>
<path style="fill:#E5AF17;" d="M467.919,6.968c-27.387,55.348-76.279,97.042-135.253,115.354c2.787,0.741,5.663,1.129,8.547,1.164
	h26.461l26.461,26.461l26.461-26.461h26.461c19.484,0,35.282-15.797,35.282-35.282V35.282
	C482.331,24.08,476.968,13.566,467.919,6.968z"/>
<path style="fill:#EDC4A2;" d="M158.462,297.416c11.14,15.947,7.242,37.91-8.706,49.05c-12.119,8.468-28.234,8.468-40.354,0
	c11.026,16.062,32.988,20.155,49.05,9.129c16.062-11.026,20.155-32.988,9.129-49.05
	C165.131,302.964,162.044,299.868,158.462,297.416z"/>
<circle style="fill:#FFD4B0;" cx="394.136" cy="211.691" r="35.282"/>
<path style="fill:#EDC4A2;" d="M414.255,182.751c11.14,15.947,7.242,37.91-8.706,49.05c-12.119,8.468-28.234,8.468-40.354,0
	c11.026,16.062,32.988,20.155,49.05,9.129c16.062-11.026,20.155-32.988,9.129-49.05
	C420.923,188.299,417.836,185.203,414.255,182.751z"/>
<g>
</g>
<g>
</g>
<g>
</g>
<g>
</g>
<g>
</g>
<g>
</g>
<g>
</g>
<g>
</g>
<g>
</g>
<g>
</g>
<g>
</g>
<g>
</g>
<g>
</g>
<g>
</g>
<g>
</g>
</svg>
