<svg width="17" height="36" viewBox="0 0 17 36" fill="red" xmlns="http://www.w3.org/2000/svg">
<path d="M8.90158 28.1588C8.90158 28.4679 8.66185 28.7185 8.36614 28.7185C8.07043 28.7185 7.83071 28.4679 7.83071 28.1588C7.83071 27.8497 8.07043 27.5991 8.36614 27.5991C8.66185 27.5991 8.90158 27.8497 8.90158 28.1588Z" fill="#F2F2F2"/>
<path d="M8.90158 30.1178C8.90158 30.427 8.66185 30.6776 8.36614 30.6776C8.07043 30.6776 7.83071 30.427 7.83071 30.1178C7.83071 29.8087 8.07043 29.5581 8.36614 29.5581C8.66185 29.5581 8.90158 29.8087 8.90158 30.1178Z" fill="#F2F2F2"/>
<path d="M8.90158 32.2168C8.90158 32.5259 8.66185 32.7765 8.36614 32.7765C8.07043 32.7765 7.83071 32.5259 7.83071 32.2168C7.83071 31.9077 8.07043 31.6571 8.36614 31.6571C8.66185 31.6571 8.90158 31.9077 8.90158 32.2168Z" fill="#F2F2F2"/>
<path fill-rule="evenodd" clip-rule="evenodd" d="M0 8.88567C0 3.97825 3.80558 0 8.5 0C13.1944 0 17 3.97825 17 8.88567V16.5445C17 21.4519 13.1944 25.4301 8.5 25.4301C3.80558 25.4301 0 21.4519 0 16.5445V8.88567ZM8.5 0.699659C4.17522 0.699659 0.669291 4.36466 0.669291 8.88567V16.5445C0.669291 21.0655 4.17522 24.7305 8.5 24.7305C12.8248 24.7305 16.3307 21.0655 16.3307 16.5445V8.88567C16.3307 4.36466 12.8248 0.699659 8.5 0.699659ZM6.4252 6.50683C6.4252 5.46352 7.23426 4.61775 8.23228 4.61775C9.23031 4.61775 10.0394 5.46352 10.0394 6.50683V10.4249C10.0394 11.4682 9.23031 12.314 8.23228 12.314C7.23426 12.314 6.4252 11.4682 6.4252 10.4249V6.50683ZM8.23228 5.31741C7.6039 5.31741 7.09449 5.84993 7.09449 6.50683V10.4249C7.09449 11.0818 7.6039 11.6143 8.23228 11.6143C8.86067 11.6143 9.37008 11.0818 9.37008 10.4249V6.50683C9.37008 5.84993 8.86067 5.31741 8.23228 5.31741ZM8.29921 6.157C8.48403 6.157 8.63386 6.31362 8.63386 6.50683V7.97611C8.63386 8.16931 8.48403 8.32594 8.29921 8.32594C8.11439 8.32594 7.96457 8.16931 7.96457 7.97611V6.50683C7.96457 6.31362 8.11439 6.157 8.29921 6.157ZM11.9492 31.1299C12.0799 31.2665 12.0799 31.488 11.9492 31.6246L8.60277 35.1229C8.47208 35.2595 8.2602 35.2595 8.12951 35.1229L4.91691 31.7645C4.78623 31.6279 4.78623 31.4064 4.91691 31.2698C5.0476 31.1332 5.25949 31.1332 5.39017 31.2698L8.36614 34.3808L11.476 31.1299C11.6067 30.9932 11.8185 30.9932 11.9492 31.1299Z" fill="#F15D03"/>
</svg>
